<svg preserveAspectRatio="none" overflow="visible" style="display: block;" width="17.5938" height="17.5938" viewBox="0 0 17.5938 17.5938" fill="none" xmlns="http://www.w3.org/2000/svg">
<g id="EventsIcon" clip-path="url(#clip0_0_704)">
<path id="Vector" opacity="0.4" d="M0.546165 7.03867C0.546165 10.6257 3.48167 13.5359 7.09986 13.5359C10.7181 13.5359 13.6536 10.6257 13.6536 7.03867C13.6536 3.45163 10.7181 0.541403 7.09986 0.541403C3.48167 0.541403 0.546165 3.45163 0.546165 7.03867ZM4.36915 6.76791C4.36915 6.61902 4.49204 6.4972 4.6422 6.4972C4.7924 6.4972 4.91529 6.61902 4.91529 6.76791V9.4751C4.91529 9.624 4.7924 9.74582 4.6422 9.74582C4.49204 9.74582 4.36915 9.624 4.36915 9.4751V6.76791ZM6.82678 3.51931C6.82678 3.37041 6.94967 3.2486 7.09982 3.2486C7.25002 3.2486 7.37291 3.37041 7.37291 3.51931V9.4751C7.37291 9.624 7.25002 9.74582 7.09982 9.74582C6.94967 9.74582 6.82678 9.624 6.82678 9.4751V3.51931ZM9.2844 5.68505C9.2844 5.53616 9.40729 5.41434 9.55745 5.41434C9.70765 5.41434 9.83054 5.53616 9.83054 5.68505V9.4751C9.83054 9.624 9.70765 9.74582 9.55745 9.74582C9.40729 9.74582 9.2844 9.624 9.2844 9.4751V5.68505Z" fill="#90A1B9"/>
<path id="Vector_2" d="M7.09986 0.541445C10.7181 0.541445 13.6536 3.45167 13.6536 7.03871C13.6536 10.6257 10.7181 13.5359 7.09986 13.5359C3.48169 13.5359 0.546177 10.6257 0.546177 7.03871C0.546177 3.45167 3.48169 0.541445 7.09986 0.541445ZM7.09986 14.0774C8.96358 14.0774 10.6566 13.3667 11.923 12.2026L17.0089 17.2448C17.1148 17.3497 17.2889 17.3497 17.3946 17.2448C17.5004 17.1399 17.5004 16.9673 17.3946 16.8624L12.3087 11.8203C13.4829 10.5648 14.1997 8.88636 14.1997 7.03871C14.1997 3.1505 11.0218 0 7.09986 0C3.17788 0 0 3.1505 0 7.03871C0 10.9269 3.1779 14.0774 7.09986 14.0774ZM4.36919 6.76795V9.47514C4.36919 9.62404 4.49208 9.74586 4.64224 9.74586C4.79244 9.74586 4.91533 9.62404 4.91533 9.47514V6.76795C4.91533 6.61906 4.79244 6.49724 4.64224 6.49724C4.49208 6.49724 4.36919 6.61906 4.36919 6.76795ZM6.82682 3.51935V9.47514C6.82682 9.62404 6.9497 9.74586 7.09986 9.74586C7.25006 9.74586 7.37295 9.62404 7.37295 9.47514V3.51935C7.37295 3.37046 7.25006 3.24864 7.09986 3.24864C6.9497 3.24864 6.82682 3.37046 6.82682 3.51935ZM9.28444 5.68509V9.47514C9.28444 9.62404 9.40733 9.74586 9.55749 9.74586C9.70769 9.74586 9.83057 9.62404 9.83057 9.47514V5.68509C9.83057 5.5362 9.70769 5.41438 9.55749 5.41438C9.40733 5.41438 9.28444 5.5362 9.28444 5.68509Z" fill="#90A1B9"/>
</g>
<defs>
<clipPath id="clip0_0_704">
<rect width="17.5938" height="17.5938" fill="white"/>
</clipPath>
</defs>
</svg>
